<?xml version="1.0" encoding="utf-8"?>
<svg viewBox="0 0 300 300" xmlns="http://www.w3.org/2000/svg">
  <g transform="matrix(0.1000000014901161, 0, 0, -0.1000000014901161, 0, 299.99999999999994)" fill="#000000" stroke="none">
    <path d="M 1385 2760 C 1298 2746 1224 2721 1196 2695 C 1167 2668 965 1659 965 1659 L 217 1047 L 184 974 C 130 858 141 758 222 621 C 268 545 375 439 434 411 C 481 389 489 389 599 398 L 715 407 C 715 407 1509.324 687.491 1504.324 687.491 C 1494.645 687.491 2322 401 2417 390 C 2517 378 2520 378 2576 404 C 2763 490 2914 765 2848 901 C 2839 920 2824 956 2815 982 C 2806 1007 2789 1039 2777 1052 C 2765 1065 2045 1659 2045 1659 C 2045 1659 1840 2686 1786 2713 C 1702 2756 1508 2779 1385 2760 Z"/>
  </g>
</svg>